Patient4_TMGait_0pt2_02_right_21_EMG.mot
version=1
nRows=16
nColumns=33
inDegrees=no
endheader
time	1LAddLong	2LGlutMax	3LGlutMed	4LIliopsoas	5LSemiMemb	6LBicFemLong	7LRecFem	8LVastMed	9LVastLat	10LGasMed	11LTibAnt	12lTibPost	13LPeroneusLong	14LSol	15LExtDigLong	16LFlexDigLong	17RAddLong	18RGlutMax	19RGlutMed	20RIliopsoas	21RSemiMemb	22RBicFemLong	23RRecFem	24RVastMed	25RVastLat	26RGasMed	27RTibAnt	28RTibPost	29RPeroneusLong	30RSol	31RExtDigLong	32RFlexDigLong
47.217	0.038605	-0.057983	0.10071	0.004272	0.014343	-0.1738	-0.039215	-0.00473	0.037384	-0.001984	-0.044861	-0.010071	-0.013275	0.061188	-0.038147	-0.003357	0.016632	-0.11917	-0.26306	-0.10162	-0.022888	-0.031738	-0.26321	-0.25055	0.44357	-0.031586	0.047607	-0.04364	0.089722	0.33875	-0.00061	0
47.218	0.026093	-0.058441	0.12131	0.006104	0.05249	0.06424	-0.014801	0.007172	0.020752	-0.021362	0.005493	0.007172	0.044098	0.08728	-0.17548	0.00412	0.00473	-0.14023	-0.24994	-0.097046	0.050964	-0.004425	-0.21423	-0.11185	0.31509	-0.024414	0.040894	-0.048523	0.097961	-0.24948	-0.002747	-0.019684
47.219	0.011139	-0.055237	0.12299	0.016479	0.084534	0.28717	0.008698	0.008087	0.01358	-0.005493	0.096741	0.000305	0.032349	0.038147	-0.17868	0.002594	-0.008392	-0.18036	-0.26733	-0.046997	0.055237	-0.003357	-0.29343	-0.21042	-0.038605	-0.013275	0.080719	0.065613	0.039978	-0.68161	0	-0.014343
47.22	-0.002289	-0.046692	0.13458	0.019226	0.075073	0.29816	0.011444	0.007782	-0.006256	0.019379	0.084229	-0.012054	0.010986	0.023041	-0.084381	-0.007172	0.003052	-0.18402	0.080719	0.040588	-0.084229	0.034485	-0.32181	-0.10803	-0.14664	-0.004272	0.17502	0.15793	-0.004272	-0.42328	-0.001678	-0.020447
47.221	-0.008698	-0.090332	0.13718	-0.006409	0.038757	0.24704	0.014954	0.007019	0.000763	0.018005	0.040436	-0.002899	0.017548	0.024109	-0.26627	0.007477	0.013733	-0.19348	0.054474	0.11871	-0.05722	-0.023193	-0.13504	0.21271	-0.15305	0.003815	0.22797	0.091858	0.052338	0.13275	0.002441	-0.014191
47.222	-0.011139	-0.11673	0.1355	0.004425	0.042725	0.22201	0.023193	0.009155	0.007172	0.007629	0.015259	-0.000916	0.012665	-0.027618	0.21973	0.005798	0.031586	-0.23514	-0.011444	0.10437	-0.027313	-0.077515	0.22278	0.25299	-0.35339	0.007629	0.22842	0.032196	0.1503	0.62012	0	-0.014038
47.223	-0.006409	-0.088959	0.13901	0.025482	0.057983	0.2179	-0.001984	0.014191	0.018921	0.027466	-0.042267	0.013733	0.000458	-0.016022	0.066986	-0.00473	0.029755	-0.2153	0.097656	0.089874	-0.003204	-0.059967	0.20264	-0.014191	-0.16968	0.001068	0.15869	0.003967	0.13702	0.41199	-0.001831	-0.005493
47.224	-0.016937	-0.098114	0.11459	0.006256	0.049133	0.25436	-0.02121	0.005798	0.021667	0.016785	-0.037994	0.001526	-0.000153	0.029144	-0.088654	0.004883	-0.006104	-0.20584	0.29846	0.043335	0.0354	-0.040436	-0.021362	-0.034485	-0.032043	0.010834	-0.23865	-0.013885	0.097809	0.024109	-0.007629	-0.016479
47.225	-0.016479	-0.091705	0.1001	0.004425	0.046844	0.25131	-0.024567	0.008545	0.026855	0.028534	-0.015411	0.003052	-0.002441	0.033112	-0.16235	0.006104	-0.014648	-0.33295	0.44022	-0.055542	0.054474	-0.093842	-0.076294	0.12924	0.01709	0.000153	-0.35431	-0.015869	0.043793	0.032806	-0.00061	-0.011292
47.226	-0.022278	-0.089569	0.088654	-0.012665	0.040283	0.14404	-0.031128	0.003662	0.034637	0.021515	0.028534	-0.002899	-0.002136	0.050354	-0.076599	0.003204	-0.01236	-0.37781	0.24307	-0.17578	-0.090485	-0.037689	0.036774	0.14725	0.045319	0.003967	-0.29892	-0.018005	0.072174	0.058136	-0.002899	-0.012207
47.227	-0.032654	-0.078735	0.11673	-0.017242	-0.032654	0.035553	-0.023804	0.01236	0.04715	0.023804	0.011902	0.006256	-0.005188	0.044403	-0.024414	0.005798	-0.011292	-0.43289	0.007172	-0.18768	-0.090179	-0.033264	0.028687	0.13062	0.0354	0.005341	-0.48614	-0.016327	0.098267	-0.16602	0.000916	-0.000305
47.228	-0.019226	-0.058289	0.11093	0.005035	-0.10925	-0.001678	-0.022736	0.004883	0.04303	0.016174	-0.014038	0.003052	0.008698	0.023499	-0.02182	0.010834	-0.003204	-0.43106	-0.29678	-0.046539	0.009766	-0.054321	-0.083771	0.13809	0.039215	0.004425	0.16632	-0.018158	0.087891	-0.21362	-0.002441	-0.006104
47.229	0.009613	-0.068054	0.11398	0.000916	-0.16815	-0.10498	-0.033112	-0.00473	0.054321	0.026855	-0.013733	0.016022	0.013733	0.014038	-0.005035	0.001831	-0.005798	-0.54672	-0.65033	0.06012	0.001373	-0.051727	-0.099487	-0.037689	0.040436	0.008392	0.29556	-0.016174	-0.023041	-0.21378	-0.002747	0.003357
47.23	0.024567	-0.082245	0.10864	-0.019684	-0.11734	-0.22751	-0.021667	-0.002747	0.048828	0.02533	-0.001678	0.011139	0.002289	0.005646	0.000916	0.007324	-0.019531	-0.64011	-0.72159	0.23636	-0.071259	-0.002136	0.007477	-0.072784	0.016632	0.00061	0.25284	-0.016022	-0.10391	-0.15228	-0.002289	-0.010376
47.231	0.015869	-0.062256	0.12741	-0.016632	-0.053101	-0.30899	-0.006104	-0.002289	0.04364	0.024872	-0.005798	0.005035	-0.039215	0.043945	0.024414	0.002747	0.005341	-0.72601	-0.46539	0.29755	-0.058899	0.066681	0.22644	-0.15411	0.16937	-0.011749	0.12772	-0.019836	-0.080872	-0.036011	-0.005493	0.004425
47.232	0.009155	-0.088959	0.11429	-0.013275	0.007324	-0.32394	0.019836	-0.001678	0.028076	0.039978	-0.002899	0.008392	-0.072174	0.030823	0.058136	0.012665	0.023499	-0.6807	0.007477	0.1535	-0.039978	0.1651	0.33737	-0.26825	0.15305	-0.005493	-0.28686	-0.018005	0.058746	0.089722	-0.003815	-0.010681
